<?xml version="1.0" standalone="no"?>
<!DOCTYPE svg PUBLIC "-//W3C//DTD SVG 1.1//EN" "../../../../www.w3.org/Graphics/SVG/1.1/DTD/svg11.dtd" >
<svg xmlns="http://www.w3.org/2000/svg">
<metadata></metadata>
<defs>
<font id="cartogothic_stdregular" horiz-adv-x="1099" >
<font-face units-per-em="2048" ascent="1552" descent="-496" />
<missing-glyph horiz-adv-x="512" />
<glyph unicode="&#xfb01;" horiz-adv-x="1234" d="M6 856v145h236v43q0 212 53 299q79 138 270 138q60 0 135 -17v-153q-65 12 -94 12q-131 0 -162 -102q-16 -59 -16 -174v-46h272v-145h-272v-856h-186v856h-236zM895 1241v205h203v-205h-203zM907 0v1001h187v-1001h-187z" />
<glyph unicode="&#xfb02;" horiz-adv-x="1234" d="M6 856v145h236v43q0 212 53 299q79 138 270 138q60 0 135 -17v-153q-65 12 -94 12q-131 0 -162 -102q-16 -59 -16 -174v-46h272v-145h-272v-856h-186v856h-236zM907 0v1475h187v-1475h-187z" />
<glyph unicode="&#xfb03;" horiz-adv-x="1943" d="M6 856v145h236v43q0 212 53 299q79 138 270 138q60 0 135 -17v-153q-65 12 -94 12q-131 0 -162 -102q-16 -59 -16 -174v-46h471v41q0 207 55 301q81 138 273 138q62 0 137 -17l-12 -153q-51 10 -92 10q-125 0 -156 -102q-17 -63 -17 -172v-46h269v-145h-266v-856h-187 v856h-475v-856h-186v856h-236zM1552 1241v205h203v-205h-203zM1563 0v1001h186v-1001h-186z" />
<glyph unicode="&#xfb04;" horiz-adv-x="1939" d="M6 856v145h236v43q0 212 53 299q79 138 270 138q60 0 135 -17v-153q-65 12 -94 12q-131 0 -162 -102q-16 -59 -16 -174v-46h471v41q0 210 55 301q81 138 273 138q65 0 137 -17l-12 -153q-51 10 -92 10q-125 0 -156 -102q-17 -63 -17 -172v-46h269v-145h-266v-856h-187 v856h-475v-856h-186v856h-236zM1563 0v1475h186v-1475h-186z" />
<glyph horiz-adv-x="2048" />
<glyph horiz-adv-x="2048" />
<glyph unicode="&#xd;" horiz-adv-x="2048" />
<glyph unicode=" "  horiz-adv-x="512" />
<glyph unicode="&#x09;" horiz-adv-x="512" />
<glyph unicode="&#xa0;" horiz-adv-x="512" />
<glyph unicode="!" horiz-adv-x="800" d="M332 1366h225l-25 -987h-167zM344 0v211h213v-211h-213z" />
<glyph unicode="&#x22;" horiz-adv-x="665" d="M86 1475h203l-31 -547h-141zM375 1475h205l-33 -547h-139z" />
<glyph unicode="#" d="M43 414l20 131h177l47 301h-176l22 131h182l62 389h153l-61 -383h264l62 383h153l-61 -389h178l-21 -131h-180l-47 -301h182l-20 -131h-182l-66 -414h-153l65 414h-264l-66 -414h-153l65 414h-182zM399 545h265l49 301h-267z" />
<glyph unicode="$" d="M96 1010q0 157 100.5 253t282.5 113v172h105v-170q63 1 169 -17t162 -40l-18 -184q-141 71 -313 82v-418l59 -21q50 -17 119 -51.5t100 -58.5q133 -103 133 -275q0 -166 -112.5 -274.5t-307.5 -130.5v-172h-104v170q-96 3 -162 14.5t-192 46.5l14 199q163 -83 340 -86 v477q-123 34 -229 106q-77 53 -111.5 115.5t-34.5 149.5zM295 1030q0 -86 84 -143q34 -21 100 -49v372q-88 -19 -136 -66t-48 -114zM575 166q85 11 136 49q39 31 62.5 75.5t23.5 88.5q0 143 -222 221v-434z" />
<glyph unicode="%" horiz-adv-x="1665" d="M47 1036q0 166 86 259.5t240 93.5q155 0 238 -92t83 -263q0 -162 -87 -258t-234 -96q-152 0 -239 95t-87 20DCBA8BA66" />
<glyph unicode="&#x26;" horiz-adv-x="1425" d="M162 381q0 180 151 297q50 38 162 84q-67 58 -110 146t-43 165q0 134 99 219.5t255 85.5q153 0 248.5 -81t95.5 -210q0 -104 -74 -195.5t-215 -160.5l270 -328q77 138 86 338h183q-6 -144 -45.5 -265.5t-106.5 -203.5l232 -272h-240l-109 129q-88 -85 -173 -120.5 t-199 -35.5q-203 0 -335 115t-132 293zM369 383q0 -104 76 -176t186 -72q72 0 134 30t128 97l-320 383q-85 -50 -110 -72q-94 -76 -94 -190zM512 1069q0 -46 25.5 -95t93.5 -134q110 65 158.5 120.5t48.5 118.5q0 61 -46.5 101.5t-115.5 40.5t-116.5 -44t-47.5 -108z" />
<glyph unicode="'" horiz-adv-x="374" d="M86 1475h203l-31 -547h-141z" />
<glyph unicode="(" horiz-adv-x="724" d="M127 535q0 292 137 606q56 129 180 334h174q-140 -257 -214 -498.5t-74 -441.5q0 -414 297 -953h-176q-324 500 -324 953z" />
<glyph unicode=")" horiz-adv-x="724" d="M98 1475h176q324 -500 324 -953q0 -292 -137 -606q-56 -129 -180 -334h-175q140 258 214.5 499t74.5 441q0 414 -297 953z" />
<glyph unicode="*" d="M168 1147l43 137l276 -102l-10 293h146l-13 -293l279 102l45 -137l-281 -82l183 -229l-119 -88l-164 243l-162 -241l-117 84l177 231z" />
<glyph unicode="+" d="M80 623v149h395v381h150v-381h397v-149h-397v-383h-150v383h-395z" />
<glyph unicode="," horiz-adv-x="546" d="M43 -264l123 483h219l-170 -483h-172z" />
<glyph unicode="-" horiz-adv-x="514" d="M0 428v154h514v-154h-514z" />
<glyph unicode="." horiz-adv-x="546" d="M164 0v219h219v-219h-219z" />
<glyph unicode="../../../default.htm" horiz-adv-x="890" d="M-59 -418l692 1893h158l-687 -1893h-163z" />
<glyph unicode="0" d="M86 690q0 269 72 438q56 126 158.5 193.5t240.5 67.5q120 0 222 -65.5t153 -174.5q82 -177 82 -479q0 -275 -80 -451q-51 -114 -155 -180t-230 -66q-132 0 -235 71.5t-156 199.5q-72 175 -72 446zM285 684q0 -133 22 -249t60 -185q67 -117 184 -117q130 0 197 139.5 t67 409.5q0 258 -68 402.5t-190 144.5q-176 0 -235 -223q-37 -139 -37 -322z" />
<glyph unicode="1" d="M213 1087l334 279h182v-1366h-194v1153q-12 -16 -31 -33q-20 -20 -45 -43l-137 -119z" />
<glyph unicode="2" d="M109 0v207q330 284 480 474t150 323q0 95 -75.5 157t-192.5 62q-145 0 -309 -99l-21 179q111 44 189.5 61.5t171.5 17.5q200 0 324 -103.5t124 -270.5q0 -129 -79.5 -262.5t-274.5 -331.5q-158 -158 -297 -260q47 8 145 8h535v-162h-870z" />
<glyph unicode="3" d="M109 37l8 180q185 -76 334 -76q132 0 217.5 68t85.5 172q0 83 -52 142t-147 85q-74 21 -201 21q-32 0 -63 -2v166q132 0 223 16q236 48 236 213q0 89 -77 146t-198 57q-148 0 -311 -68l-12 168q163 59 333 59q208 0 320 -79q143 -103 143 -281q0 -128 -90.5 -214.5 t-236.5 -98.5q154 -8 249 -103t95 -243q0 -174 -137 -278.5t-365 -104.5q-176 0 -354 55z" />
<glyph unicode="4" d="M43 299v162l553 905h281v-905h180v-162h-180v-299h-195v299h-639zM238 461h45h399v543q0 67 3 103.5t20 192.5q-33 -100 -131 -275.5t-336 -563.5z" />
<glyph unicode="5" d="M170 33l6 180q153 -68 279 -68q143 0 233 77t90 200q0 126 -93 201t-247 75q-118 0 -258 -47l10 715h756v-162h-575l-4 -262q0 -9 -7 -104q70 20 154 20q212 0 343.5 -118t131.5 -308q0 -202 -145 -324t-387 -122q-139 0 -287 47z" />
<glyph unicode="6" d="M106 639q0 367 141.5 558.5t411.5 191.5q135 0 283 -46l-24 -174q-126 60 -250 60q-92 0 -171 -46.5t-126 -129.5q-32 -56 -54 -143t-22 -160v-33q40 69 124 110t185 41q178 0 293 -122.5t115 -313.5q0 -201 -124 -329t-319 -128q-226 0 -344.5 170t-118.5 494zM317 434 q0 -126 72 -212.5t178 -86.5t176 81.5t70 205.5q0 123 -70 205t-176 82q-109 0 -179.5 -77t-70.5 -198z" />
<glyph unicode="7" d="M104 1204v162h873v-162l-512 -1204h-217l411 938q79 176 129 268h-12q-12 -1 -39 -1.5t-63 -0.5h-570z" />
<glyph unicode="8" d="M78 360q0 127 76 219.5t223 145.5q-118 25 -193 115t-75 207q0 155 120 248.5t320 93.5q191 0 309.5 -92.50840C59A2C" />
<glyph unicode="9" d="M80 940q0 198 122.5 325.5t313.5 127.5q227 0 347 -167.5t120 -484.5q0 -378 -142 -571t-419 -193q-123 0 07E2952AD9" />
<glyph unicode=":" horiz-adv-x="546" d="M164 0v219h219v-219h-219zM164 782v219h219v-219h-219z" />
<glyph unicode=";" horiz-adv-x="546" d="M41 -264l123 483h219l-168 -483h-174zM145 782v219h220v-219h-220z" />
<glyph unicode="&#x3c;" horiz-adv-x="1024" d="M68 612v158l886 428v-184l-690 -322l690 -323v-183z" />
<glyph unicode="=" d="M80 479v150h942v-150h-942zM80 766v149h942v-149h-942z" />
<glyph unicode="&#x3e;" horiz-adv-x="1024" d="M70 186v183l690 323l-690 322v182l886 -426v-158z" />
<glyph unicode="?" horiz-adv-x="1042" d="M199 1329q177 60 331 60q186 0 303 -98t117 -255q0 -89 -39.5 -167t-150.5 -207q-78 -90 -99.5 -139t-21.5 -142h-176q0 139 30.5 207.5t151.5 204.5q103 112 103 221q0 91 -65.5 145.5t-174.5 54.5q-145 0 -295 -75zM449 0v213h208v-213h-208z" />
<glyph unicode="@" horiz-adv-x="1562" d="M98 678q0 197 95 361.5t259.5 259t362.5 94.5q184 0 332.5 -78.5t232.5 -217.5t84 -311q0 -125 -47 -237t-125.5 -179t-165.5 -67q-60 0 -101 35t-50 94q-44 -67 -111.5 -104t-144.5 -37q-124 0 -205.5 93.5t-81.5 236.5q0 111 48.5 206t131 151t179.5 56q158 0 217 -137 l22 115h131l-82 -420q-12 -65 -12 -96q0 -36 19 -60t47 -24q83 0 149 114.5t66 257.5q0 214 -148.5 352t-378.5 138q-164 0 -300.5 -79t-215 -216.5t-78.5 -302.5q0 -119 42.5 -229t119.5 -189q156 -166 434 -166q228 0 420 86l33 -119q-204 -86 -447 -86q-321 0 -522 195 q-99 97 -154 231.5t-55 278.5zM580 623q0 -88 48.5 -143.5t123.5 -55.5q89 0 152 84t63 203q0 84 -44 134t-118 50q-91 0 -158 -81t-67 -191z" />
<glyph unicode="A" horiz-adv-x="1398" d="M10 0l582 1366h205l592 -1366h-220l-143 346h-664l-141 -346h-211zM424 512h534l-157 381q-95 226 -111 305q-24 -82 -115 -309z" />
<glyph unicode="B" horiz-adv-x="1185" d="M176 0v1366h324q156 0 227 -12t133 -47q172 -100 172 -291q0 -167 -125 -254q-61 -45 -166 -68q77 -11 116.5 -23.5t80.5 -39.5q135 -91 135 -264q0 -100 -49 -182.5t-137 -129.5q-55 -30 -128 -42.5t-194 -12.5h-389zM371 166h151q94 0 140.5 6.5t87.5 26.5 q122 56 122 186q0 76 -46 134.5t-126 84.5q-67 21 -227 21h-102v-459zM371 784h139q137 0 199 23q59 23 94 73t35 111q0 67 -40.5 117.5t-111.5 73.5q-62 18 -215 18h-100v-416z" />
<glyph unicode="C" horiz-adv-x="1189" d="M98 690q0 201 91 357t254 242.5t372 86.5q180 0 311 -61l-16 -185q-78 44 -141.5 62t-143.5 18q-229 0 -373.5 -144.5t-144.5 -371.5q0 -229 150 -379.5t377 -150.5q137 0 292 61l15 -188q-140 -47 -303 -47q-299 0 -484 143q-124 95 -190 239t-66 318z" />
<glyph unicode="D" horiz-adv-x="1411" d="M176 0v1366h283q243 0 364 -33q220 -59 356 -239.5t136 -415.5q0 -224 -123.5 -394t-335.5 -239q-139 -45 -367 -45h-313zM371 166h102q132 0 204.5 10.5t139.5 38.5q135 59 212 183.5t77 285.5q0 164 -89.5 297t-234.5 184q-101 35 -307 35h-104v-1034z" />
<glyph unicode="E" horiz-adv-x="1079" d="M176 0v1366h760v-166h-565v-403h524v-166h-524v-465h581v-166h-776z" />
<glyph unicode="F" horiz-adv-x="987" d="M176 0v1366h725v-166h-530v-409h510v-166h-510v-625h-195z" />
<glyph unicode="G" horiz-adv-x="1406" d="M98 694q0 311 203 496.5t543 185.5q205 0 375 -67l-15 -187q-160 88 -348 88q-243 0 -396 -144.5t-153 -373.5q0 -241 153 -388.5t404 -147.5q91 0 185 30v396h-293v166h487v-695q-186 -63 -393 -63q-346 0 -549 190t-203 514z" />
<glyph unicode="H" horiz-adv-x="1402" d="M176 0v1366h195v-573h661v573h195v-1366h-195v627h-661v-627h-195z" />
<glyph unicode="I" horiz-adv-x="573" d="M190 0v1366h195v-1366h-195z" />
<glyph unicode="J" horiz-adv-x="753" d="M39 6v170q74 -29 143 -29q66 0 113.5 31.5t69.5 89.5q13 33 16.5 70t3.5 147v881h195v-930q0 -146 -7 -192t-36 -99q-91 -163 -326 -163q-59 0 -172 24z" />
<glyph unicode="K" horiz-adv-x="1290" d="M176 0v1366h195v-457q0 -117 -4 -164q102 114 112 125l477 496h263l-644 -647l699 -719h-283l-497 530q-7 7 -125 146q2 -55 2 -139v-537h-195z" />
<glyph unicode="L" horiz-adv-x="983" d="M176 0v1366h195v-1200h577v-166h-772z" />
<glyph unicode="M" horiz-adv-x="1853" d="M176 0v1366h322l268 -686q94 -238 119 -309q33 -99 43 -150q32 115 164 463l260 682h325v-1366h-194v780q0 65 3 237.5t3 229.5v29q-11 -33 -12 -35l-33 -106q-17 -56 -90 -254q-7 -20 -20.5 -59t-20.5 -58q-8 -24 -22 -58t-17 -42l-256 -664h-189l-258 664 q-113 291 -139.5 365.5t-69.5 209.5q0 1 -12 37v-31q10 -113 12 -186q0 -16 1 -40t2 -59t2 -59q4 -122 4 -135v-766h-195z" />
<glyph unicode="N" horiz-adv-x="1443" d="M176 0v1366h266l465 -805q139 -243 187 -391q-21 208 -21 539v657h195v-1366h-252l-432 741q-188 320 -230 469q17 -199 17 -514v-696h-195z" />
<glyph unicode="O" horiz-adv-x="1517" d="M98 680q0 155 51 297.5t142 239.5q167 176 477 176q296 0 473.5 -193.5t177.5 -517.5q0 -147 -43 -277.5t-121 -226.5q-83 -100 -209.5 -152.5t-283.5 -52.5q-149 0 -272.5 49.5t-208.5 143.5q-85 92 -134 230t-49 284zM307 684q0 -246 126.5 -401.5t326.5 -155.5 q198 0 324 154t126 397q0 249 -123.5 405t-320.5 156q-209 0 -334 -151t-125 -404z" />
<glyph unicode="P" horiz-adv-x="1087" d="M178 0v1366h271q142 0 214 -7.5t132 -29.5q115 -41 181 -140.5t66 -230.5q0 -129 -64.5 -227.5t-178.5 -142.5q-99 -41 -318 -41h-108v-547h-195zM373 713h106q172 0 240 39q54 31 84.5 85.5t30.5 120.5q0 82 -46 140.5t-131 83.5q-67 18 -202 18h-82v-487z" />
<glyph unicode="Q" horiz-adv-x="1517" d="M98 682q0 324 180.5 517.5t481.5 193.5q330 0 504 -219q155 -193 155 -496q0 -229 -93.5 -396.5t-268.5 -250.5l327 -295h-256l-260 244q-86 -7 -104 -7q-302 0 -484 193.5t-182 515.5zM307 690q0 -249 126 -406t325 -157q201 0 326.5 153t125.5 398q0 249 -123.5 405 t-320.5 156q-207 0 -333 -150t-126 -399z" />
<glyph unicode="R" horiz-adv-x="1193" d="M176 0v1366h330q123 0 184 -7t123 -28q104 -35 165.5 -123t61.5 -202q0 -74 -29 -140t-83 -110q-37 -29 -74.5 -44.5t-103.5 -27.5q61 -26 96 -65t74 -121l231 -498h-225l-176 410q-56 128 -103 163t-164 35h-112v-608h-195zM371 776h121q143 0 213 25q64 23 99.5 72.5 t35.5 115.5t-35 116.5t-96 72.5q-59 22 -197 22h-141v-424z" />
<glyph unicode="S" horiz-adv-x="970" d="M88 1020q0 167 118.5 270t311.5 103q151 0 299 -50l-24 -172q-149 56 -256 56q-109 0 -177.5 -52.5t-68.5 -136.5q0 -70 47.5 -120t173.5 -113l74 -37q172 -86 237.5 -169t65.5 -214q0 -185 -128 -298.5t-337 -113.5q-168 0 -313 56l20 182q150 -72 268 -72q127 0 204 64 t77 168q0 76 -50 132t-161 107l-76 35q-162 74 -233.5 161t-71.5 214z" />
<glyph unicode="T" horiz-adv-x="1083" d="M12 1200v166h1059v-166h-428v-1200h-194v1200h-437z" />
<glyph unicode="U" horiz-adv-x="1409" d="M176 623v743h195v-715q0 -142 10.5 -216t38.5 -130q40 -78 117.5 -122t175.5 -44q109 0 185.5 53t111.5 154q18 49 23 105t5 190v725h195v-770q0 -155 -18 -243t-64 -160q-68 -107 -181.5 -163.5t-262.5 -56.5q-169 0 -294.5 73t-183.5 208q-53 118 -53 369z" />
<glyph unicode="V" horiz-adv-x="1296" d="M10 1366h215l334 -901q64 -175 96 -305q25 120 93 305l333 901h205l-516 -1366h-238z" />
<glyph unicode="W" horiz-adv-x="1953" d="M10 1366h213l236 -799q75 -261 96 -377q10 72 86 383l197 793h280l209 -799q28 -108 48.5 -196t33.5 -135q1 -3 2.5 -9t4.5 -17t5 -20q25 152 90 377l234 799h201l-410 -1366h-248l-237 897q-51 187 -76 311q-63 -293 -68 -311l-225 -897h-252z" />
<glyph unicode="X" horiz-adv-x="1300" d="M12 0l504 717l-465 649h236l362 -516l361 516h225l-459 -649l512 -717h-248l-405 584l-389 -584h-234z" />
<glyph unicode="Y" horiz-adv-x="1288" d="M10 1366h242l338 -512q32 -48 39.5 -61t19.5 -41q5 11 8.5 18.5t6 12.5t7.5 13l7.5 12t12 18t14.5 22l342 518h231l-533 -786v-580h-194v573z" />
<glyph unicode="Z" horiz-adv-x="1093" d="M61 0v166l555 805q119 174 175 233q-100 -4 -191 -4h-514v166h915v-180l-585 -842q-8 -14 -25 -36.5t-20 -26.5q-23 -29 -37 -52q-6 -7 -12.5 -15.5t-10 -12.5t-4.5 -6l-22 -35q49 6 151 6h578v-166h-953z" />
<glyph unicode="[" horiz-adv-x="727" d="M195 -418v1893h380v-134h-204v-1628h204v-131h-380z" />
<glyph unicode="\" horiz-adv-x="890" d="M100 1475h158l692 -1893h-164z" />
<glyph unicode="]" horiz-adv-x="727" d="M152 -285h204v1628h-204v132h380v-1893h-380v133z" />
<glyph unicode="^" horiz-adv-x="1024" d="M39 729l352 641h242l352 -641h-197l-276 496l-276 -496h-197z" />
<glyph unicode="_" horiz-adv-x="1024" d="M0 -121h1024v-168h-1024v168z" />
<glyph unicode="`" horiz-adv-x="1024" d="M254 1450h205l168 -281h-131z" />
<glyph unicode="a" horiz-adv-x="1083" d="M88 287q0 158 136 243.5t388 85.5q46 0 140 -6q-1 129 -62.5 190.5t-187.5 61.5q-82 0 -150 -22.5t-145 -75.5l-10 164q162 92 335 92q130 0 224 -48t135 -136q23 -47 32 -110.5t9 -176.5v-209q0 -210 10 -340h-170q-2 39 -2 80q0 31 2 92q-57 -95 -139 -140.5 t-197 -45.5q-158 0 -253 82t-95 219zM285 289q0 -69 53.5 -112.5t138.5 -43.5q83 0 149.5 39t98.5 107q31 63 31 194q-53 6 -101 6q-370 0 -370 -190z" />
<glyph unicode="b" horiz-adv-x="1181" d="M145 0v1475h187v-529q0 -47 -2 -82q-1 -2 -1.5 -7t-1 -13.5t-1.5 -14.5q37 86 131.5 138.5t214.5 52.5q195 0 312.5 -139t117.5 -371q0 -238 -118 -381t-316 -143q-116 0 -206.5 48.5t-137.5 137.5v-172h-179zM336 500q0 -152 83.5 -254.5t207.5 -102.5 q121 0 199.5 101.5t78.5 257.5q0 159 -75 259.5t-195 100.5q-131 0 -215 -102t-84 -260z" />
<glyph unicode="c" horiz-adv-x="874" d="M80 500q0 212 123 350q69 76 170.5 120t208.5 44q124 0 227 -41l-12 -164q-78 47 -183 47q-149 0 -243.5 -97.5t-94.5 -250.5q0 -161 93 -262t241 -101q58 0 105 14.5t104 49.5l15 -170q-105 -51 -246 -51q-229 0 -368.5 141t-139.5 371z" />
<glyph unicode="d" horiz-adv-x="1187" d="M80 498q0 232 121.5 377t316.5 145q210 0 332 -174l-4 88q0 10 -1 26.5t-1 22.5v492h186v-1008q0 -215 14 0AA5CB3A46" />
<glyph unicode="e" horiz-adv-x="1069" d="M80 510q0 233 129.5 375.5t343.5 142.5q207 0 321.5 -142.5t114.5 -400.5q0 -18 -2 -32h-721q19 -150 108.0E5452CAB7" />
<glyph unicode="f" horiz-adv-x="722" d="M6 856v145h236v43q0 212 53 299q79 138 270 138q60 0 135 -17v-153q-65 12 -94 12q-131 0 -162 -102q-16 -59 -16 -174v-46h272v-145h-272v-856h-186v856h-236z" />
<glyph unicode="g" horiz-adv-x="1159" d="M80 496q0 233 121 377.5t315 144.5q117 0 207 -50.5t131 -138.5q2 12 2 23q-2 18 -2 59v93h174v-830q0 -140B8FC47A92" />
<glyph unicode="h" horiz-adv-x="1161" d="M143 0v1475h187v-478q0 -107 -6 -157q106 180 333 180q123 0 210.5 -56t127.5 -159q37 -96 37 -279v-526h-186v434q0 193 -19 262q-22 81 -75.5 123.5t-133.5 42.5q-92 0 -164.5 -55.5t-101.5 -149.5q-13 -42 -17.5 -94t-4.5 -166v-397h-187z" />
<glyph unicode="i" horiz-adv-x="468" d="M129 1241v205h203v-205h-203zM141 0v1001h187v-1001h-187z" />
<glyph unicode="j" horiz-adv-x="507" d="M-37 -262q36 -4 49 -4q53 0 92 23.5t54 64.5q12 32 14 59t2 139v981h186v-981q0 -133 -3.5 -176t-20.5 -94q-28 -83 -98 -129.5t-166 -46.5q-40 0 -109 10v154zM166 1241v205h203v-205h-203z" />
<glyph unicode="k" horiz-adv-x="1060" d="M143 0v1475h187v-707q0 -56 -1 -94.5t-2 -52t-2 -23t-1 -14.5q33 42 86 92l325 325h250l-467 -442l531 -559h-263l-340 369q-15 17 -53.5 66.5t-68.5 80.5q6 -48 6 -151v-365h-187z" />
<glyph unicode="l" horiz-adv-x="468" d="M141 0v1475h187v-1475h-187z" />
<glyph unicode="m" horiz-adv-x="1728" d="M141 1001h172l11 -161q40 85 123.5 132.5t191.5 47.5q112 0 187.5 -52t107.5 -149q101 201 330 201q114 0 194.5 -56.5t114.5 -160.5q26 -85 26 -277v-526h-186v492q0 174 -16 231q-39 139 -172 139q-81 0 -146 -57t-90 -150q-12 -42 -15 -83.5t-3 -147.5v-424h-187v514 q0 163 -14 211q-19 66 -62.5 101.5t-103.5 35.5q-76 0 -140 -49t-95 -131q-19 -50 -24 -91.5t-5 -148.5v-442h-186v565q0 169 -13 436z" />
<glyph unicode="n" horiz-adv-x="1169" d="M141 1001h174l9 -157q119 176 344 176q131 0 221 -63.5t125 -180.5q26 -82 26 -309v-467h-186v451q0 119 -3 164t-13 83q-22 78 -77 121t-134 43q-92 0 -164 -56t-101 -151q-14 -48 -18 -100.5t-4 -187.5v-367h-186v496q0 234 -13 505z" />
<glyph unicode="o" horiz-adv-x="1185" d="M80 498q0 230 144.5 380t365.5 150q229 0 372.5 -149t143.5 -387q0 -226 -146 -372.5t-370 -146.5q-144 0 0DFA89BAF4" />
<glyph unicode="p" horiz-adv-x="1189" d="M141 1001h176l13 -176q117 195 348 195q193 0 311.5 -139.5t118.5 -366.5q0 -238 -119.5 -383t-314.5 -145q-123 0 -206.5 48t-137.5 148l2 -32q8 -114 8 -160v-408h-186v981q0 209 -13 438zM340 500q0 -151 84.5 -254t208.5 -103q120 0 199 102.5t79 256.5 q0 160 -75 260t-195 100q-131 0 -216 -102t-85 -260z" />
<glyph unicode="q" horiz-adv-x="1183" d="M78 496q0 236 121.5 380t320.5 144q120 0 210 -54.5t134 -152.5q-6 29 -6 64q0 53 -4 106q0 8 2 18h180v-10DF5992A16" />
<glyph unicode="r" horiz-adv-x="737" d="M141 1001h172l11 -178q43 94 116 143.5t168 49.5q47 0 101 -15v-170q-50 19 -88 19q-91 0 -159.5 -55.5t-99.5 -153.5q-14 -41 -18 -88.5t-4 -159.5v-393h-186v610q0 89 -13 391z" />
<glyph unicode="s" horiz-adv-x="774" d="M72 729q0 132 95.5 211.5t252.5 79.5q111 0 233 -41l-14 -158q-102 51 -203 51q-77 0 -122.5 -33.5t-45.5 -90.5q0 -41 33.5 -75.5t106.5 -70.5l75 -37q124 -60 175 -122.5t51 -155.5q0 -137 -100.5 -221t-264.5 -84q-138 0 -260 57v166q138 -66 235 -66q85 0 139 37 t54 94q0 59 -49 95q-23 16 -84 47l-78 39q-70 35 -99 53.5t-57 44.5q-73 73 -73 180z" />
<glyph unicode="t" horiz-adv-x="751" d="M-6 856v145h231v226l187 63v-289h264v-145h-264v-397q0 -148 10 -197q10 -55 50.5 -86t102.5 -31q55 0 121 31v-160q-95 -28 -172 -28q-91 0 -158.5 34t-101.5 97q-22 41 -30.5 103.5t-8.5 180.5v453h-231z" />
<glyph unicode="u" horiz-adv-x="1159" d="M129 471v530h186v-464q0 -197 27 -269q25 -66 75.5 -100.5t119.5 -34.5q76 0 139 42t100 116q27 55 34 101.5t7 168.5v440h187v-630q0 -155 12 -371h-170l-10 156q-120 -170 -336 -170q-111 0 -196 47t-126 133q-49 101 -49 305z" />
<glyph unicode="v" horiz-adv-x="966" d="M12 1001h201l205 -577q34 -94 49.5 -143t18 -62.5t6.5 -44.5q8 51 18 84l25 76l235 667h184l-360 -1001h-213z" />
<glyph unicode="w" horiz-adv-x="1622" d="M12 1001h203l164 -538q66 -217 76 -295l8 35q16 71 49 174l197 624h217l182 -550q38 -109 78 -283q16 112 71 289l168 544h185l-320 -1001h-215l-172 514q-58 176 -92 328q-40 -167 -90 -324l-166 -518h-213z" />
<glyph unicode="x" horiz-adv-x="972" d="M12 0l359 526l-332 475h227l164 -247q49 -77 66 -125q9 27 20 47.5t47 79.5l156 245h205l-320 -475l357 -526h-230l-186 289q-50 78 -66 121q-9 -29 -22 -56q-2 -4 -6 -10t-12.5 -19.5t-20.5 -31.5l-189 -293h-217z" />
<glyph unicode="y" horiz-adv-x="964" d="M12 1001h201l223 -632q50 -139 53 -207q8 49 15 76q1 2 3.5 11t8.5 26.5t16 46.5l236 679h184l-356 -991q-51 -142 -78 -199.5t-65 -107.5q-95 -127 -265 -127q-43 0 -114 14l10 152q48 -18 88 -18q84 0 133 55q62 76 92 180z" />
<glyph unicode="z" horiz-adv-x="972" d="M74 0v152l473 581q14 17 31 38t29.5 35.5t33.5 35.5l18 18q-62 -4 -143 -4h-420v145h768v-155l-483 -590q-47 -56 -80 -90q-5 -8 -25 -31q39 10 156 10h455v-145h-813z" />
<glyph unicode="{" horiz-adv-x="1009" d="M281 463v131q61 17 87.5 61t26.5 127v408q0 165 90 231q42 31 93.5 42.5t154.5 11.5h33v-134q-122 0 -158.0E97026AFB" />
<glyph unicode="|" horiz-adv-x="1024" d="M420 -342v1708h184v-1708h-184z" />
<glyph unicode="}" horiz-adv-x="1009" d="M244 -285q122 0 158 31t36 137v402q0 99 25.5 151t93.5 92q-66 40 -92.5 94.5t-26.5 153.5v395q0 107 -36.5 139t-157.5 31v134h35h55q145 0 212.5 -72.5t67.5 -226.5v-390q0 -89 26 -133t89 -59v-131q-61 -17 -88 -61.5t-27 -127.5v-407q0 -166 -90 -232 q-41 -31 -92.5 -42t-155.5 -11h-32v133z" />
<glyph unicode="~" horiz-adv-x="1366" d="M188 1249q48 97 76 135q83 115 213 115q74 0 225 -65q90 -40 124 -51t69 -11q55 0 91.5 27.5t82.5 103.5l109 -63q-35 -71 -62 -109.5t-63 -68.5q-85 -66 -183 -66q-40 0 -95.5 18t-192.5 76q-70 31 -119 31q-51 0 -89 -32t-79 -109z" />
<glyph unicode="&#xa1;" horiz-adv-x="800" d="M242 -365l32 986h168l25 -986h-225zM252 791v210h211v-210h-211z" />
<glyph unicode="&#xa2;" d="M186 694q0 210 123.5 348.5t329.5 161.5v158h104v-158q105 -12 175 -37l-13 -163q-65 37 -162 43v-705q10306C40B2A8A " />
<glyph unicode="&#xa3;" d="M125 0v162h182v502h-164v108h162v47q0 157 17.5 236.5t66.5 148.5q58 82 157.5 127t219.5 45q122 0 240 -39l-17 -170q-69 28 -112 39t-91 11q-98 0 -170 -50.5t-98 -138.5q-22 -74 -22 -219v-37h317v-108h-311v-502h481v-162h-858z" />
<glyph unicode="&#xa4;" d="M66 993l88 88l161 -159q115 79 236 79q124 0 233 -77l162 157l86 -88l-160 -157q80 -115 80 -232q0 -118 -08E0B7DA7B" />
<glyph unicode="&#xa5;" d="M10 1366h242l262 -514q31 -59 43 -100q12 38 39 96l262 518h234l-267 -479h203v-109h-264l-92 -166h336v-108h-355v-504h-194v504h-365v108h342l-94 166h-268v109h207z" />
<glyph unicode="&#xa6;" horiz-adv-x="1024" d="M420 313h184v-655h-184v655zM420 676v690h184v-690h-184z" />
<glyph unicode="&#xa7;" d="M109 559q0 111 63 199q25 35 53.5 54.5t85.5 41.5q-52 28 -78.5 48.5t-48.5 49.5q-59 77 -59 185q0 157 130A57178AAD" />
<glyph unicode="&#xa8;" horiz-adv-x="1024" d="M238 1202v199h178v-199h-178zM608 1202v199h178v-199h-178z" />
<glyph unicode="&#xa9;" horiz-adv-x="1607" d="M98 682q0 195 95 358.5t260 258t362 94.5q139 0 267.5 -57t222 -152t149 -226.5t55.5 -273.5q0 -145 -55.5 -276.5t-150 -226.5t-225 -151.5t-273.5 -56.5q-190 0 -353 95.5t-258.5 259t-95.5 354.5zM209 682q0 -123 47.5 -235.5t127.5 -194t190 -130t231 -48.5 q161 0 298 81.5t216.5 221.5t79.5 305q0 123 -47 236t-126 195t-187.5 130.5t-225.5 48.5q-166 0 -305 -80.5t-219 -221t-80 -308.5zM416 686q0 173 122.5 283t315.5 110q113 0 197 -37l-13 -120q-53 28 -91 38.5t-87 10.5q-134 0 -218.5 -78.5t-84.5 -202.5q0 -125 88 -207 t221 -82q84 0 183 37l8 -123q-92 -28 -189 -28q-207 0 -329.5 108t-122.5 291z" />
<glyph unicode="&#xaa;" horiz-adv-x="727" d="M86 952q0 97 88 150t248 53q41 0 82 -4q-3 131 -150 131q-53 0 -95.5 -14t-96.5 -49l-6 116q107 58 219 58q89 0 151.5 -33.5t87.5 -93.5q21 -56 21 -166v-35q-2 -23 -2 -72q0 -140 8 -219h-123q-2 29 -2 53v29q-40 -47 -88 -68.5t-115 -21.5q-103 0 -165 50.5t-62 135.5 zM106 573v97h535v-97h-535zM225 956q0 -38 32 -62t83 -24q49 0 89 22t60 60q17 35 17 103q-20 4 -53 4q-228 0 -228 -103z" />
<glyph unicode="&#xab;" horiz-adv-x="1095" d="M109 506l274 397h178l-254 -397l258 -406h-174zM506 506l274 397h178l-253 -397l258 -406h-175z" />
<glyph unicode="&#xac;" horiz-adv-x="1024" d="M68 375v172h886v-547h-184v375h-702z" />
<glyph unicode="&#xad;" horiz-adv-x="514" d="M0 428v154h514v-154h-514z" />
<glyph unicode="&#xae;" horiz-adv-x="1607" d="M98 682q0 195 95 358.5t260 258t362 94.5q139 0 267.5 -57t222 -152t149 -226.5t55.5 -273.5q0 -145 -55.5 -276.5t-150 -226.5t-225 -151.5t-273.5 -56.5q-190 0 -353 95.5t-258.5 259t-95.5 354.5zM209 682q0 -123 47.5 -235.5t127.5 -194t190 -130t231 -48.5 q161 0 298 81.5t216.5 221.5t79.5 305q0 123 -47 236t-126 195t-187.5 130.5t-225.5 48.5q-166 0 -305 -80.5t-219 -221t-80 -308.5zM543 293v780h205q124 0 188 -20t102.5 -72.5t38.5 -118.5q0 -69 -40.5 -116t-114.5 -66q47 -24 82 -96l145 -291h-154l-106 233 q-32 69 -59.5 88t-94.5 19h-59v-340h-133zM676 743h65q106 0 152.5 26t46.5 85q0 57 -44.5 83t-143.5 26h-76v-220z" />
<glyph unicode="&#xaf;" horiz-adv-x="1024" d="M221 1239v117h582v-117h-582z" />
<glyph unicode="&#xb0;" horiz-adv-x="768" d="M86 1206q0 117 88 202t209 85q124 0 211.5 -85.5t87.5 -205.5q0 -121 -87 -207t-210 -86q-126 0 -212.5 86t-86.5 211zM203 1204q0 -76 52.5 -129t129.5 -53q73 0 126.5 53t53.5 125q0 75 -53.5 127.5t-128.5 52.5q-74 0 -127 -52t-53 -124z" />
<glyph unicode="&#xb1;" d="M80 117v149h942v-149h-942zM80 745v150h395v381h150v-381h397v-150h-397v-383h-150v383h-395z" />
<glyph unicode="&#xb2;" horiz-adv-x="507" d="M55 819v94q144 115 208.5 190t64.5 126q0 34 -31 57t-78 23q-62 0 -139 -45l-12 90q91 35 165 35q90 0 145.5 -44t55.5 -116q0 -49 -29.5 -98t-101.5 -121q-53 -53 -127 -111h270v-80h-391z" />
<glyph unicode="&#xb3;" horiz-adv-x="507" d="M55 838l4 90q85 -35 150 -35q54 0 88.5 25t34.5 63q0 90 -164 90h-35v82h31q78 0 122 22t44 62q0 32 -31.5 53t-79.5 21q-63 0 -139 -33l-8 86q82 27 151 27q98 0 153.5 -40.5t55.5 -111.5q0 -86 -100 -127q57 -23 81.5 -55t24.5 -82q0 -74 -61 -118t-162 -44 q-83 0 -160 25z" />
<glyph unicode="&#xb4;" horiz-adv-x="1024" d="M397 1169l168 281h205l-242 -281h-131z" />
<glyph unicode="&#xb5;" horiz-adv-x="1024" d="M82 -346v1329h184v-545q0 -107 16 -163t58 -95q65 -65 168 -65q110 0 182 88q37 47 51.5 103t14.5 147v530h184v-983h-184v158q-44 -95 -104 -139t-148 -44q-78 0 -135 34.5t-103 109.5v-465h-184z" />
<glyph unicode="&#xb6;" d="M47 981q0 106 43.5 193t118.5 133q97 59 274 59h545v-143h-104v-1641h-158v1641h-182v-1641h-158v1026q-178 0 -278.5 99t-100.5 274z" />
<glyph unicode="&#xb7;" horiz-adv-x="546" d="M164 395v219h219v-219h-219z" />
<glyph unicode="&#xb8;" horiz-adv-x="1024" d="M303 -369l35 70q65 -29 133 -29q47 0 77 21t30 55q0 32 -27.5 54t-67.5 22q-14 0 -71 -14l-33 32l98 158h82l-67 -111q54 11 73 11q69 0 112.5 -39t43.5 -101q0 -72 -65.5 -121t-163.5 -49q-103 0 -189 41z" />
<glyph unicode="&#xb9;" horiz-adv-x="507" d="M94 1264l154 118h90v-563h-100v340v29v35v47q-9 -9 -21 -17l-63 -53z" />
<glyph unicode="&#xba;" horiz-adv-x="833" d="M86 1071q0 139 93.5 230.5t236.5 91.5q148 0 240 -90.5t92 -235.5q0 -135 -94 -224t-238 -89q-142 0 -236 90t-94 227zM106 573v97h621v-97h-621zM225 1071q0 -94 54 -154.5t139 -60.5q82 0 136 60.5t54 152.5q0 97 -53.5 159t-136.5 62q-85 0 -139 -62t-54 -157z" />
<glyph unicode="&#xbb;" horiz-adv-x="1095" d="M131 100l258 406l-254 397h178l275 -397l-283 -406h-174zM528 100l260 406l-253 397h176l274 -397l-280 -406h-177z" />
<glyph unicode="&#xbc;" horiz-adv-x="1765" d="M147 1190l207 176h125v-823h-145v495v140l-103 -91zM449 -66l745 1498h121l-748 -1498h-118zM1098 172v1150C9B377AA9" />
<glyph unicode="&#xbd;" horiz-adv-x="1765" d="M147 1190l207 176h125v-823h-145v495v140l-103 -91zM449 -66l745 1498h121l-748 -1498h-118zM1133 0v145q185 161 270.5 269t85.5 180q0 46 -38 76t-95 30q-83 0 -191 -65l-16 143q74 31 120.5 42t104.5 11q120 0 195.5 -65t75.5 -168q0 -94 -79.5 -207.5t-248.5 -261.5 h22h322v-129h-528z" />
<glyph unicode="&#xbe;" horiz-adv-x="1765" d="M94 571l8 144q120 -53 201 -53q67 0 110.5 33.5t43.5 86.5q0 125 -205 125q-24 0 -55 -4v133h45q102 0 157026B136AE7" />
<glyph unicode="&#xbf;" horiz-adv-x="1042" d="M92 -35q0 89 40 167t151 208q78 89 99 138t21 143h177q0 -139 -30.5 -208t-152.5 -204q-102 -117 -102 -221q0 -91 65.5 -146t174.5 -55q142 0 294 76l15 -191q-171 -59 -332 -59q-186 0 -303 97.5t-117 254.5zM385 786v215h209v-215h-209z" />
<glyph unicode="&#xc0;" horiz-adv-x="1398" d="M10 0l582 1366h205l592 -1366h-220l-143 346h-664l-141 -346h-211zM367 1767h225l180 -266h-141zM424 512h534l-157 381q-95 226 -111 305q-24 -82 -115 -309z" />
<glyph unicode="&#xc1;" horiz-adv-x="1398" d="M10 0l582 1366h205l592 -1366h-220l-143 346h-664l-141 -346h-211zM424 512h534l-157 381q-95 226 -111 305q-24 -82 -115 -309zM647 1501l178 266h228l-265 -266h-141z" />
<glyph unicode="&#xc2;" horiz-adv-x="1398" d="M10 0l582 1366h205l592 -1366h-220l-143 346h-664l-141 -346h-211zM389 1501l225 266h187l225 -266h-172l-147 170l-146 -170h-172zM424 512h534l-157 381q-95 226 -111 305q-24 -82 -115 -309z" />
<glyph unicode="&#xc3;" horiz-adv-x="1398" d="M10 0l582 1366h205l592 -1366h-220l-143 346h-664l-141 -346h-211zM395 1518q20 110 70 162.5t133 52.5q68 0 199 -58q54 -24 82 -24q75 0 96 90h96q-1 -3 -2 -11t-2 -10q-11 -57 -18 -77t-27 -46q-54 -75 -143 -75q-38 0 -70 9t-123 48q-73 31 -108 31q-29 0 -53 -26 t-33 -66h-97zM424 512h534l-157 381q-95 226 -111 305q-24 -82 -115 -309z" />
<glyph unicode="&#xc4;" horiz-adv-x="1398" d="M10 0l582 1366h205l592 -1366h-220l-143 346h-664l-141 -346h-211zM403 1528v198h187v-198h-187zM424 512h534l-157 381q-95 226 -111 305q-24 -82 -115 -309zM801 1528v198h186v-198h-186z" />
<glyph unicode="&#xc5;" horiz-adv-x="1398" d="M10 0l582 1366h205l592 -1366h-220l-143 346h-664l-141 -346h-211zM424 512h534l-157 381q-95 226 -111 300200107A33" />
<glyph unicode="&#xc6;" horiz-adv-x="1847" d="M12 0l824 1366h860v-166h-549l31 -412h485v-165h-473l31 -457h499v-166h-680l-26 350h-576l-207 -350h-219zM532 516h469l-45 709z" />
<glyph unicode="&#xc7;" horiz-adv-x="1189" d="M98 690q0 201 91 357t254 242.5t372 86.5q180 0 311 -61l-16 -185q-78 44 -141.5 62t-143.5 18q-229 0 -370E3D63FAC2" />
<glyph unicode="&#xc8;" horiz-adv-x="1079" d="M176 0v1366h760v-166h-565v-403h524v-166h-524v-465h581v-166h-776zM256 1767h225l181 -266h-142z" />
<glyph unicode="&#xc9;" horiz-adv-x="1079" d="M176 0v1366h760v-166h-565v-403h524v-166h-524v-465h581v-166h-776zM467 1501l178 266h227l-264 -266h-141z" />
<glyph unicode="&#xca;" horiz-adv-x="1079" d="M176 0v1366h760v-166h-565v-403h524v-166h-524v-465h581v-166h-776zM246 1501l225 266h186l226 -266h-172l-148 170l-145 -170h-172z" />
<glyph unicode="&#xcb;" horiz-adv-x="1079" d="M176 0v1366h760v-166h-565v-403h524v-166h-524v-465h581v-166h-776zM272 1528v198h187v-198h-187zM670 1528v198h186v-198h-186z" />
<glyph unicode="&#xcc;" horiz-adv-x="573" d="M-4 1767h219l166 -266h-141zM190 0v1366h195v-1366h-195z" />
<glyph unicode="&#xcd;" horiz-adv-x="573" d="M190 0v1366h195v-1366h-195zM221 1501l166 266h219l-244 -266h-141z" />
<glyph unicode="&#xce;" horiz-adv-x="573" d="M10 1501l191 266h186l191 -266h-164l-119 176l-121 -176h-164zM190 0v1366h195v-1366h-195z" />
<glyph unicode="&#xcf;" horiz-adv-x="573" d="M63 1528v198h177v-198h-177zM190 0v1366h195v-1366h-195zM348 1528v198h176v-198h-176z" />
<glyph unicode="&#xd0;" horiz-adv-x="1411" d="M39 629v164h137v573h281q138 0 216.5 -7t145.5 -26q220 -60 357 -241.5t137 -413.5q0 -220 -125 -392t-334 -241q-139 -45 -369 -45h-309v629h-137zM369 168h102q136 0 207.5 10t138.5 39q135 57 212 181.5t77 285.5q0 164 -90 296t-236 183q-98 35 -307 35h-104v-405 h354v-164h-354v-461z" />
<glyph unicode="&#xd1;" horiz-adv-x="1443" d="M176 0v1366h266l465 -805q139 -243 187 -391q-21 208 -21 539v657h195v-1366h-252l-432 741q-188 320 -230 469q17 -199 17 -514v-696h-195zM438 1518q20 110 70 162.5t133 52.5q68 0 199 -58q54 -24 82 -24q75 0 96 90h96q-1 -3 -2 -11t-2 -10q-11 -57 -18 -77t-27 -46 q-54 -75 -143 -75q-38 0 -70 9t-123 48q-73 31 -108 31q-29 0 -53 -26t-33 -66h-97z" />
<glyph unicode="&#xd2;" horiz-adv-x="1517" d="M98 680q0 155 51 297.5t142 239.5q167 176 477 176q296 0 473.5 -193.5t177.5 -517.5q0 -147 -43 -277.5t-121 -226.5q-83 -100 -209.5 -152.5t-283.5 -52.5q-149 0 -272.5 49.5t-208.5 143.5q-85 92 -134 230t-49 284zM307 684q0 -246 126.5 -401.5t326.5 -155.5 q198 0 324 154t126 397q0 249 -123.5 405t-320.5 156q-209 0 -334 -151t-125 -404zM453 1767h225l180 -266h-141z" />
<glyph unicode="&#xd3;" horiz-adv-x="1517" d="M98 680q0 155 51 297.5t142 239.5q167 176 477 176q296 0 473.5 -193.5t177.5 -517.5q0 -147 -43 -277.5t-121 -226.5q-83 -100 -209.5 -152.5t-283.5 -52.5q-149 0 -272.5 49.5t-208.5 143.5q-85 92 -134 230t-49 284zM307 684q0 -246 126.5 -401.5t326.5 -155.5 q198 0 324 154t126 397q0 249 -123.5 405t-320.5 156q-209 0 -334 -151t-125 -404zM692 1501l178 266h228l-264 -266h-142z" />
<glyph unicode="&#xd4;" horiz-adv-x="1517" d="M98 680q0 155 51 297.5t142 239.5q167 176 477 176q296 0 473.5 -193.5t177.5 -517.5q0 -147 -43 -277.5t-121 -226.5q-83 -100 -209.5 -152.5t-283.5 -52.5q-149 0 -272.5 49.5t-208.5 143.5q-85 92 -134 230t-49 284zM307 684q0 -246 126.5 -401.5t326.5 -155.5 q198 0 324 154t126 397q0 249 -123.5 405t-320.5 156q-209 0 -334 -151t-125 -404zM461 1501l225 266h186l226 -266h-172l-148 170l-145 -170h-172z" />
<glyph unicode="&#xd5;" horiz-adv-x="1517" d="M98 680q0 155 51 297.5t142 239.5q167 176 477 176q296 0 473.5 -193.5t177.5 -517.5q0 -147 -43 -277.5t-121 -226.5q-83 -100 -209.5 -152.5t-283.5 -52.5q-149 0 -272.5 49.5t-208.5 143.5q-85 92 -134 230t-49 284zM307 684q0 -246 126.5 -401.5t326.5 -155.5 q198 0 324 154t126 397q0 249 -123.5 405t-320.5 156q-209 0 -334 -151t-125 -404zM455 1518q20 110 69.5 162.5t132.5 52.5q68 0 199 -58q54 -24 82 -24q75 0 96 90h96q-1 -3 -2 -11t-2 -10q-11 -57 -18 -77t-27 -46q-54 -75 -143 -75q-38 0 -70 9t-123 48q-73 31 -108 31 q-29 0 -53 -26t-33 -66h-96z" />
<glyph unicode="&#xd6;" horiz-adv-x="1517" d="M98 680q0 155 51 297.5t142 239.5q167 176 477 176q296 0 473.5 -193.5t177.5 -517.5q0 -147 -43 -277.5t-121 -226.5q-83 -100 -209.5 -152.5t-283.5 -52.5q-149 0 -272.5 49.5t-208.5 143.5q-85 92 -134 230t-49 284zM307 684q0 -246 126.5 -401.5t326.5 -155.5 q198 0 324 154t126 397q0 249 -123.5 405t-320.5 156q-209 0 -334 -151t-125 -404zM481 1528v198h187v-198h-187zM879 1528v198h186v-198h-186z" />
<glyph unicode="&#xd7;" d="M145 397l299 299l-299 299l107 107l299 -299l299 299l106 -107l-299 -299l299 -299l-106 -106l-299 299l-299 -299z" />
<glyph unicode="&#xd8;" horiz-adv-x="1517" d="M98 686q0 150 51.5 292t141.5 239q80 85 199.5 130.5t265.5 45.5q246 0 420 -129l127 145l104 -84l-137 -158q149 -207 149 -485q0 -324 -177 -516.5t-476 -192.5q-258 0 -426 136l-127 -144l-102 86l135 156q-148 203 -148 479zM307 688q0 -190 76 -330l664 768 q-51 53 -128.5 83t-164.5 30q-198 0 -322.5 -153.5t-124.5 -397.5zM467 244q135 -117 293 -117q198 0 324 153.5t126 395.5q0 177 -77 344z" />
<glyph unicode="&#xd9;" horiz-adv-x="1409" d="M176 623v743h195v-715q0 -142 10.5 -216t38.5 -130q40 -78 117.5 -122t175.5 -44q109 0 185.5 53t111.5 154q18 49 23 105t5 190v725h195v-770q0 -155 -18 -243t-64 -160q-68 -107 -181.5 -163.5t-262.5 -56.5q-169 0 -294.5 73t-183.5 208q-53 118 -53 369zM399 1767 h226l180 -266h-141z" />
<glyph unicode="&#xda;" horiz-adv-x="1409" d="M176 623v743h195v-715q0 -142 10.5 -216t38.5 -130q40 -78 117.5 -122t175.5 -44q109 0 185.5 53t111.5 154q18 49 23 105t5 190v725h195v-770q0 -155 -18 -243t-64 -160q-68 -107 -181.5 -163.5t-262.5 -56.5q-169 0 -294.5 73t-183.5 208q-53 118 -53 369zM631 1501 l178 266h227l-264 -266h-141z" />
<glyph unicode="&#xdb;" horiz-adv-x="1409" d="M176 623v743h195v-715q0 -142 10.5 -216t38.5 -130q40 -78 117.5 -122t175.5 -44q109 0 185.5 53t111.5 154q18 49 23 105t5 190v725h195v-770q0 -155 -18 -243t-64 -160q-68 -107 -181.5 -163.5t-262.5 -56.5q-169 0 -294.5 73t-183.5 208q-53 118 -53 369zM399 1501 l226 266h186l225 -266h-172l-147 170l-146 -170h-172z" />
<glyph unicode="&#xdc;" horiz-adv-x="1409" d="M176 623v743h195v-715q0 -142 10.5 -216t38.5 -130q40 -78 117.5 -122t175.5 -44q109 0 185.5 53t111.5 154q18 49 23 105t5 190v725h195v-770q0 -155 -18 -243t-64 -160q-68 -107 -181.5 -163.5t-262.5 -56.5q-169 0 -294.5 73t-183.5 208q-53 118 -53 369zM426 1528 v198h186v-198h-186zM823 1528v198h187v-198h-187z" />
<glyph unicode="&#xdd;" horiz-adv-x="1288" d="M10 1366h242l338 -512q32 -48 39.5 -61t19.5 -41q5 11 8.5 18.5t6 12.5t7.5 13l7.5 12t12 18t14.5 22l342 518h231l-533 -786v-580h-194v573zM565 1501l178 266h228l-264 -266h-142z" />
<glyph unicode="&#xde;" horiz-adv-x="1091" d="M176 0v1366h197v-192h76q142 0 214 -7.5t132 -29.5q115 -41 181 -141t66 -230q0 -129 -64.5 -228t-178.5 -143q-99 -41 -318 -41h-108v-354h-197zM373 520h106q171 0 242 39q54 31 84.5 86t30.5 121q0 81 -46 139t-131 84q-70 19 -204 19h-82v-488z" />
<glyph unicode="&#xdf;" horiz-adv-x="1181" d="M141 0v811q0 194 9 275.5t38 148.5q53 120 161 186t253 66q184 0 299 -109t115 -282q0 -114 -62 -197.5t-172 -118.5q131 -6 217 -112t86 -262q0 -87 -30.5 -166t-85.5 -136q-118 -118 -332 -118q-61 0 -170 14v164q82 -31 149 -31q122 0 197.5 77.5t75.5 201.5 q0 138 -86.5 212t-247.5 74h-37v152h33q129 0 198.5 64t69.5 182q0 109 -62.5 176t-162.5 67q-77 0 -140 -44t-92 -119q-20 -51 -27 -123t-7 -226v-827h-187z" />
<glyph unicode="&#xe0;" horiz-adv-x="1083" d="M88 287q0 158 136 243.5t388 85.5q46 0 140 -6q-1 129 -62.5 190.5t-187.5 61.5q-82 0 -150 -22.5t-145 -75.5l-10 164q162 92 335 92q130 0 224 -48t135 -136q23 -47 32 -110.5t9 -176.5v-209q0 -210 10 -340h-170q-2 39 -2 80q0 31 2 92q-57 -95 -139 -140.5 t-197 -45.5q-158 0 -253 82t-95 219zM242 1450h204l168 -281h-131zM285 289q0 -69 53.5 -112.5t138.5 -43.5q83 0 149.5 39t98.5 107q31 63 31 194q-53 6 -101 6q-370 0 -370 -190z" />
<glyph unicode="&#xe1;" horiz-adv-x="1083" d="M88 287q0 158 136 243.5t388 85.5q46 0 140 -6q-1 129 -62.5 190.5t-187.5 61.5q-82 0 -150 -22.5t-145 -75.5l-10 164q162 92 335 92q130 0 224 -48t135 -136q23 -47 32 -110.5t9 -176.5v-209q0 -210 10 -340h-170q-2 39 -2 80q0 31 2 92q-57 -95 -139 -140.5 t-197 -45.5q-158 0 -253 82t-95 219zM285 289q0 -69 53.5 -112.5t138.5 -43.5q83 0 149.5 39t98.5 107q31 63 31 194q-53 6 -101 6q-370 0 -370 -190zM473 1169l168 281h205l-242 -281h-131z" />
<glyph unicode="&#xe2;" horiz-adv-x="1083" d="M88 287q0 158 136 243.5t388 85.5q46 0 140 -6q-1 129 -62.5 190.5t-187.5 61.5q-82 0 -150 -22.5t-145 -75.5l-10 164q162 92 335 92q130 0 224 -48t135 -136q23 -47 32 -110.5t9 -176.5v-209q0 -210 10 -340h-170q-2 39 -2 80q0 31 2 92q-57 -95 -139 -140.5 t-197 -45.5q-158 0 -253 82t-95 219zM254 1169l211 281h182l211 -281h-156l-145 189l-147 -189h-156zM285 289q0 -69 53.5 -112.5t138.5 -43.5q83 0 149.5 39t98.5 107q31 63 31 194q-53 6 -101 6q-370 0 -370 -190z" />
<glyph unicode="&#xe3;" horiz-adv-x="1083" d="M88 287q0 158 136 243.5t388 85.5q46 0 140 -6q-1 129 -62.5 190.5t-187.5 61.5q-82 0 -150 -22.5t-145 -75.5l-10 164q162 92 335 92q130 0 224 -48t135 -136q23 -47 32 -110.5t9 -176.5v-209q0 -210 10 -340h-170q-2 39 -2 80q0 31 2 92q-57 -95 -139 -140.5 t-197 -45.5q-158 0 -253 82t-95 219zM272 1198q13 99 62.5 152t126.5 53q32 0 55.5 -7.5t116.5 -45.5q49 -21 72 -21q29 0 49 20.5t26 57.5h97q-13 -97 -59.5 -151t-115.5 -54q-29 0 -70.5 14t-144.5 58q-19 8 -43 8q-60 0 -75 -84h-97zM285 289q0 -69 53.5 -112.5 t138.5 -43.5q83 0 149.5 39t98.5 107q31 63 31 194q-53 6 -101 6q-370 0 -370 -190z" />
<glyph unicode="&#xe4;" horiz-adv-x="1083" d="M88 287q0 158 136 243.5t388 85.5q46 0 140 -6q-1 129 -62.5 190.5t-187.5 61.5q-82 0 -150 -22.5t-145 -75.5l-10 164q162 92 335 92q130 0 224 -48t135 -136q23 -47 32 -110.5t9 -176.5v-209q0 -210 10 -340h-170q-2 39 -2 80q0 31 2 92q-57 -95 -139 -140.5 t-197 -45.5q-158 0 -253 82t-95 219zM285 289q0 -69 53.5 -112.5t138.5 -43.5q83 0 149.5 39t98.5 107q31 63 31 194q-53 6 -101 6q-370 0 -370 -190zM295 1202v199h178v-199h-178zM666 1202v199h178v-199h-178z" />
<glyph unicode="&#xe5;" horiz-adv-x="1083" d="M88 287q0 158 136 243.5t388 85.5q46 0 140 -6q-1 129 -62.5 190.5t-187.5 61.5q-82 0 -150 -22.5t-145 -70C7DFCFAC2" />
<glyph unicode="&#xe6;" horiz-adv-x="1751" d="M88 293q0 85 46.5 154.5t133.5 111.5q127 62 379 62h135q-1 52 -10 83.5t-29 59.5q-32 46 -97 73t-144 27q08E8DC0AB4" />
<glyph unicode="&#xe7;" horiz-adv-x="874" d="M80 500q0 223 142 368.5t360 145.5q124 0 227 -41l-12 -164q-78 47 -183 47q-149 0 -243.5 -97.5t-94.5 -250.5q0 -161 93 -262t241 -101q58 0 105 14.5t104 49.5l15 -170q-105 -51 -240 -51h-37l-59 -97q62 9 75 9q68 0 111 -39.5t43 -100.5q0 -72 -65 -121t-162 -49 q-102 0 -191 41l35 70q68 -29 133 -29q47 0 77 21t30 55q0 32 -27 54t-65 22q-24 0 -74 -14l-31 34l94 154q-184 28 -292.5 165t-108.5 337z" />
<glyph unicode="&#xe8;" horiz-adv-x="1069" d="M80 510q0 233 129.5 375.5t343.5 142.5q207 0 321.5 -142.5t114.5 -400.5q0 -18 -2 -32h-721q19 -150 108.03115AAA41" />
<glyph unicode="&#xe9;" horiz-adv-x="1069" d="M80 510q0 233 129.5 375.5t343.5 142.5q207 0 321.5 -142.5t114.5 -400.5q0 -18 -2 -32h-721q19 -150 108.5 -236t227.5 -86q156 0 311 94v-178q-164 -74 -321 -74q-235 0 -373.5 145.5t-138.5 391.5zM268 598h535q-16 121 -51 172q-34 52 -88 81.5t-117 29.5 q-110 0 -185 -76.5t-94 -206.5zM494 1169l168 281h204l-241 -281h-131z" />
<glyph unicode="&#xea;" horiz-adv-x="1069" d="M80 510q0 233 129.5 375.5t343.5 142.5q207 0 321.5 -142.5t114.5 -400.5q0 -18 -2 -32h-721q19 -150 108.030295CA4F" />
<glyph unicode="&#xeb;" horiz-adv-x="1069" d="M80 510q0 233 129.5 375.5t343.5 142.5q207 0 321.5 -142.5t114.5 -400.5q0 -18 -2 -32h-721q19 -150 108.5 -236t227.5 -86q156 0 311 94v-178q-164 -74 -321 -74q-235 0 -373.5 145.5t-138.5 391.5zM268 598h535q-16 121 -51 172q-34 52 -88 81.5t-117 29.5 q-110 0 -185 -76.5t-94 -206.5zM281 1202v199h178v-199h-178zM651 1202v199h178v-199h-178z" />
<glyph unicode="&#xec;" horiz-adv-x="468" d="M-33 1450h199l153 -281h-131zM143 0v1001h187v-1001h-187z" />
<glyph unicode="&#xed;" horiz-adv-x="468" d="M141 0v1001h187v-1001h-187zM178 1169l154 281h198l-221 -281h-131z" />
<glyph unicode="&#xee;" horiz-adv-x="468" d="M-20 1169l176 281h182l178 -281h-149l-119 195l-119 -195h-149zM141 0v1001h187v-1001h-187z" />
<glyph unicode="&#xef;" horiz-adv-x="468" d="M23 1202v199h167v-199h-167zM143 0v1001h187v-1001h-187zM295 1202v199h168v-199h-168z" />
<glyph unicode="&#xf0;" horiz-adv-x="1185" d="M80 496q0 148 63.5 269t176.5 190t251 69q90 0 144.5 -20t124.5 -80q-13 85 -74.5 181t-130.5 142l-221 -1059D0BEAD5" />
<glyph unicode="&#xf1;" horiz-adv-x="1169" d="M141 1001h174l9 -157q119 176 344 176q131 0 221 -63.5t125 -180.5q26 -82 26 -309v-467h-186v451q0 119 -3 164t-13 83q-22 78 -77 121t-134 43q-92 0 -164 -56t-101 -151q-14 -48 -18 -100.5t-4 -187.5v-367h-186v496q0 234 -13 505zM309 1198q13 99 62.5 152t126.5 53 q32 0 55.5 -7.5t116.5 -45.5q49 -21 71 -21q29 0 49.5 20.5t26.5 57.5h96q-14 -97 -59.5 -151t-114.5 -54q-29 0 -70.5 14t-144.5 58q-19 8 -43 8q-60 0 -75 -84h-97z" />
<glyph unicode="&#xf2;" horiz-adv-x="1185" d="M80 498q0 230 144.5 380t365.5 150q229 0 372.5 -149t143.5 -387q0 -226 -146 -372.5t-370 -146.5q-144 0 -261 68t-183 188.5t-66 268.5zM276 500q0 -167 89 -273t229 -106q136 0 225.5 105.5t89.5 265.5q0 171 -88.5 280t-226.5 109t-228 -107.5t-90 -273.5zM307 1450 h205l168 -281h-131z" />
<glyph unicode="&#xf3;" horiz-adv-x="1185" d="M80 498q0 230 144.5 380t365.5 150q229 0 372.5 -149t143.5 -387q0 -226 -146 -372.5t-370 -146.5q-144 0 -261 68t-183 188.5t-66 268.5zM276 500q0 -167 89 -273t229 -106q136 0 225.5 105.5t89.5 265.5q0 171 -88.5 280t-226.5 109t-228 -107.5t-90 -273.5zM539 1169 l168 281h204l-241 -281h-131z" />
<glyph unicode="&#xf4;" horiz-adv-x="1185" d="M80 498q0 230 144.5 380t365.5 150q229 0 372.5 -149t143.5 -387q0 -226 -146 -372.5t-370 -146.5q-144 0 -261 68t-183 188.5t-66 268.5zM276 500q0 -167 89 -273t229 -106q136 0 225.5 105.5t89.5 265.5q0 171 -88.5 280t-226.5 109t-228 -107.5t-90 -273.5zM311 1169 l211 281h183l210 -281h-155l-146 189l-147 -189h-156z" />
<glyph unicode="&#xf5;" horiz-adv-x="1185" d="M80 498q0 230 144.5 380t365.5 150q229 0 372.5 -149t143.5 -387q0 -226 -146 -372.5t-370 -146.5q-144 0 -261 68t-183 188.5t-66 268.5zM276 500q0 -167 89 -273t229 -106q136 0 225.5 105.5t89.5 265.5q0 171 -88.5 280t-226.5 109t-228 -107.5t-90 -273.5zM324 1198 q13 99 62 152t126 53q32 0 55.5 -7.5t116.5 -45.5q49 -21 72 -21q29 0 49 20.5t26 57.5h97q-14 -97 -59.5 -151t-114.5 -54q-29 0 -70.5 14t-144.5 58q-19 8 -43 8q-61 0 -76 -84h-96z" />
<glyph unicode="&#xf6;" horiz-adv-x="1185" d="M80 498q0 230 144.5 380t365.5 150q229 0 372.5 -149t143.5 -387q0 -226 -146 -372.5t-370 -146.5q-144 0 -261 68t-183 188.5t-66 268.5zM276 500q0 -167 89 -273t229 -106q136 0 225.5 105.5t89.5 265.5q0 171 -88.5 280t-226.5 109t-228 -107.5t-90 -273.5zM332 1202 v199h178v-199h-178zM702 1202v199h179v-199h-179z" />
<glyph unicode="&#xf7;" d="M80 623v149h942v-149h-942zM453 291v194h194v-194h-194zM453 909v195h194v-195h-194z" />
<glyph unicode="&#xf8;" horiz-adv-x="1185" d="M80 500q0 229 144.5 378.5t365.5 149.5q171 0 305 -94l113 125l94 -80l-115 -129q119 -143 119 -354q0 -229 -145 -376t-371 -147q-87 0 -157.5 22t-145.5 73l-111 -125l-94 86l115 125q-117 141 -117 346zM276 498q0 -58 10 -102t38 -109l450 526q-62 68 -180 68 q-138 0 -228 -108t-90 -275zM406 193q42 -40 83.5 -56t106.5 -16q135 0 225 107.5t90 269.5q0 122 -53 217z" />
<glyph unicode="&#xf9;" horiz-adv-x="1159" d="M129 471v530h186v-464q0 -197 27 -269q25 -66 75.5 -100.5t119.5 -34.5q76 0 139 42t100 116q27 55 34 101.5t7 168.5v440h187v-630q0 -155 12 -371h-170l-10 156q-120 -170 -336 -170q-111 0 -196 47t-126 133q-49 101 -49 305zM287 1450h205l167 -281h-131z" />
<glyph unicode="&#xfa;" horiz-adv-x="1159" d="M129 471v530h186v-464q0 -197 27 -269q25 -66 75.5 -100.5t119.5 -34.5q76 0 139 42t100 116q27 55 34 101.5t7 168.5v440h187v-630q0 -155 12 -371h-170l-10 156q-120 -170 -336 -170q-111 0 -196 47t-126 133q-49 101 -49 305zM504 1169l168 281h205l-242 -281h-131z " />
<glyph unicode="&#xfb;" horiz-adv-x="1159" d="M129 471v530h186v-464q0 -197 27 -269q25 -66 75.5 -100.5t119.5 -34.5q76 0 139 42t100 116q27 55 34 101.5t7 168.5v440h187v-630q0 -155 12 -371h-170l-10 156q-120 -170 -336 -170q-111 0 -196 47t-126 133q-49 101 -49 305zM279 1169l210 281h183l211 -281h-156 l-145 189l-148 -189h-155z" />
<glyph unicode="&#xfc;" horiz-adv-x="1159" d="M129 471v530h186v-464q0 -197 27 -269q25 -66 75.5 -100.5t119.5 -34.5q76 0 139 42t100 116q27 55 34 101.5t7 168.5v440h187v-630q0 -155 12 -371h-170l-10 156q-120 -170 -336 -170q-111 0 -196 47t-126 133q-49 101 -49 305zM305 1202v199h178v-199h-178zM676 1202 v199h178v-199h-178z" />
<glyph unicode="&#xfd;" horiz-adv-x="964" d="M12 1001h201l223 -632q50 -139 53 -207q8 49 15 76q1 2 3.5 11t8.5 26.5t16 46.5l236 679h184l-356 -991q-51 -142 -78 -199.5t-65 -107.5q-95 -127 -265 -127q-43 0 -114 14l10 152q48 -18 88 -18q84 0 133 55q62 76 92 180zM416 1169l168 281h204l-241 -281h-131z" />
<glyph unicode="&#xfe;" horiz-adv-x="1187" d="M154 -418v1893h184v-474q0 -85 -12 -176q125 195 350 195q193 0 311.5 -139.5t118.5 -366.5q0 -238 -119.5 -383t-314.5 -145q-123 0 -206.5 47.5t-137.5 148.5l2 -32q8 -114 8 -160v-408h-184zM338 498q0 -151 84.5 -253t208.5 -102q120 0 199 102.5t79 256.5 q0 160 -75 259t-195 99q-131 0 -216 -102t-85 -260z" />
<glyph unicode="&#xff;" horiz-adv-x="964" d="M12 1001h201l223 -632q50 -139 53 -207q8 49 15 76q1 2 3.5 11t8.5 26.5t16 46.5l236 679h184l-356 -991q-51 -142 -78 -199.5t-65 -107.5q-95 -127 -265 -127q-43 0 -114 14l10 152q48 -18 88 -18q84 0 133 55q62 76 92 180zM219 1202v199h178v-199h-178zM590 1202v199 h178v-199h-178z" />
<glyph unicode="&#x152;" horiz-adv-x="1855" d="M96 694q0 190 88.5 343.5t245.5 236.5q101 54 218 73t351 19h261h450v-166h-549v-407h510v-166h-510v-461h0A88628A74" />
<glyph unicode="&#x153;" horiz-adv-x="1851" d="M80 508q0 226 139.5 374t353.5 148q143 0 252 -60.5t144 -160.5q37 106 130 163.5t228 57.5q126 0 223 -55.5t154 -159.5q37 -67 51 -144.5t14 -211.5h-704q12 -154 101 -241t235 -87q141 0 270 92v-184q-138 -66 -309 -66q-150 0 -255.5 59.5t-137.5 162.5 q-34 -100 -140 -161t-245 -61q-221 0 -362.5 150.5t-141.5 384.5zM276 500q0 -162 87.5 -270.5t216.5 -108.5q132 0 218.5 107.5t86.5 271.5t-86.5 273.5t-216.5 109.5q-135 0 -220.5 -106.5t-85.5 -276.5zM1067 604h498q-3 127 -68.5 203t-171.5 76q-103 0 -175.5 -78 t-82.5 -201z" />
<glyph unicode="&#x178;" horiz-adv-x="1288" d="M10 1366h242l338 -512q32 -48 39.5 -61t19.5 -41q5 11 8.5 18.5t6 12.5t7.5 13l7.5 12t12 18t14.5 22l342 518h231l-533 -786v-580h-194v573zM365 1528v198h186v-198h-186zM762 1528v198h186v-198h-186z" />
<glyph unicode="&#x2c6;" horiz-adv-x="1024" d="M209 1169l211 281h182l211 -281h-156l-145 189l-147 -189h-156z" />
<glyph unicode="&#x2dc;" horiz-adv-x="1024" d="M209 1198q13 99 62 152t126 53q32 0 55.5 -7.5t116.5 -45.5q49 -21 72 -21q29 0 49.5 20.5t26.5 57.5h96q-14 -97 -59.5 -151t-114.5 -54q-29 0 -70.5 14t-144.5 58q-19 8 -43 8q-61 0 -76 -84h-96z" />
<glyph unicode="&#x2000;" horiz-adv-x="926" />
<glyph unicode="&#x2001;" horiz-adv-x="1853" />
<glyph unicode="&#x2002;" horiz-adv-x="926" />
<glyph unicode="&#x2003;" horiz-adv-x="1853" />
<glyph unicode="&#x2004;" horiz-adv-x="617" />
<glyph unicode="&#x2005;" horiz-adv-x="463" />
<glyph unicode="&#x2006;" horiz-adv-x="308" />
<glyph unicode="&#x2007;" horiz-adv-x="308" />
<glyph unicode="&#x2008;" horiz-adv-x="231" />
<glyph unicode="&#x2009;" horiz-adv-x="370" />
<glyph unicode="&#x200a;" horiz-adv-x="102" />
<glyph unicode="&#x2010;" horiz-adv-x="514" d="M0 428v154h514v-154h-514z" />
<glyph unicode="&#x2011;" horiz-adv-x="514" d="M0 428v154h514v-154h-514z" />
<glyph unicode="&#x2012;" horiz-adv-x="514" d="M0 428v154h514v-154h-514z" />
<glyph unicode="&#x2013;" d="M88 428v154h926v-154h-926z" />
<glyph unicode="&#x2014;" horiz-adv-x="1456" d="M0 428v154h1456v-154h-1456z" />
<glyph unicode="&#x2018;" horiz-adv-x="559" d="M123 993l170 482h172l-123 -482h-219z" />
<glyph unicode="&#x2019;" horiz-adv-x="559" d="M96 993l123 482h219l-170 -482h-172z" />
<glyph unicode="&#x201a;" horiz-adv-x="559" d="M96 -262l123 481h219l-170 -481h-172z" />
<glyph unicode="&#x201c;" horiz-adv-x="931" d="M123 993l170 482h172l-123 -482h-219zM496 993l170 482h172l-123 -482h-219z" />
<glyph unicode="&#x201d;" horiz-adv-x="931" d="M96 993l123 482h219l-170 -482h-172zM469 993l121 482h221l-170 -482h-172z" />
<glyph unicode="&#x201e;" horiz-adv-x="931" d="M123 -264l123 483h219l-170 -483h-172zM496 -264l120 483h222l-170 -483h-172z" />
<glyph unicode="&#x2022;" horiz-adv-x="1366" d="M401 692q0 120 83.5 202.5t203.5 82.5q115 0 198 -84t83 -201t-83 -199.5t-200 -82.5q-118 0 -201.5 82.5t-83.5 199.5z" />
<glyph unicode="&#x2026;" horiz-adv-x="1642" d="M164 0v219h219v-219h-219zM711 0v219h219v-219h-219zM1260 0v219h219v-219h-219z" />
<glyph unicode="&#x202f;" horiz-adv-x="370" />
<glyph unicode="&#x2039;" horiz-adv-x="698" d="M109 506l274 397h178l-254 -397l258 -406h-174z" />
<glyph unicode="&#x203a;" horiz-adv-x="698" d="M131 100l258 406l-254 397h178l275 -397l-283 -406h-174z" />
<glyph unicode="&#x205f;" horiz-adv-x="463" />
<glyph unicode="&#x20ac;" horiz-adv-x="1339" d="M86 547l35 108h98v68h-133l35 108h110q51 275 216.5 418.5t429.5 143.5q219 0 376 -101l-61 -190q-122 137 -313 137q-169 0 -286.5 -109.5t-152.5 -298.5h666l-35 -108h-643v-68h621l-35 -108h-574q35 -196 152.5 -308t286.5 -112q186 0 315 141v-229q-142 -66 -315 -66 q-264 0 -435 151t-215 423h-143z" />
<glyph unicode="&#x2122;" horiz-adv-x="1763" d="M0 1257v111h651v-111h-256v-669h-133v669h-262zM748 588v780h206l164 -389q4 -9 24.5 -58t31.5 -75q19 -48 34 -96q41 118 88 231l160 387h209v-780h-133v444l2 228q-53 -158 -111 -295l-157 -377h-123l-158 377q-55 131 -113 284q9 -133 9 -225v-436h-133z" />
<glyph unicode="&#xe000;" horiz-adv-x="1003" d="M0 0v1004h1004v-1004h-1004z" />
</font>
</defs>
</svg>
